<svg xmlns="http://www.w3.org/2000/svg" xmlns:svg="http://www.w3.org/2000/svg" xmlns:xlink="http://www.w3.org/1999/xlink" id="svg3718" width="92.5" height="91.25" version="1.1" viewBox="0 0 92.5 91.25"><metadata id="metadata3724"/><path id="path3767" d="m 66.25,71.25 0,-8.75 8.75,0 8.75,0 0,8.75 0,8.75 -8.75,0 -8.75,0 0,-8.75 z m -28.75,-17.5 0,-8.75 8.75,0 8.75,0 0,8.75 0,8.75 -8.75,0 -8.75,0 0,-8.75 z m -28.75,-17.5 0,-8.75 8.75,0 8.75,0 0,8.75 0,8.75 -8.75,0 -8.75,0 0,-8.75 z m 57.5,0 0,-8.75 8.75,0 8.75,0 0,8.75 0,8.75 -8.75,0 -8.75,0 0,-8.75 z m -28.75,-17.5 0,-8.75 8.75,0 8.75,0 0,8.75 0,8.75 -8.75,0 -8.75,0 0,-8.75 z" style="fill:#0000fe"/><path id="path3765" d="m 43.75,68.125 0,-5.625 2.5,0 2.5,0 0,3.125 0,3.125 8.75,0 8.75,0 0,2.5 0,2.5 -11.25,0 -11.25,0 0,-5.625 z M 15,50.625 15,45 l 2.5,0 2.5,0 0,3.125 0,3.125 8.75,0 8.75,0 0,2.5 0,2.5 -11.25,0 -11.25,0 0,-5.625 z m 28.75,-11.25 0,-5.625 11.25,0 11.25,0 0,2.5 0,2.5 -8.75,0 -8.75,0 0,3.125 0,3.125 -2.5,0 -2.5,0 0,-5.625 z M 15,21.875 l 0,-5.625 11.25,0 11.25,0 0,2.5 0,2.5 -8.75,0 -8.75,0 0,3.125 0,3.125 -2.5,0 -2.5,0 0,-5.625 z" style="fill:#000"/></svg>